#define icon_width 50
#define icon_height 28
static char icon_bits[] = {
  0x00, 0x00, 0x00, 0x00, 0x00, 0x00, 0x00, 0x00, 0x00, 0x00, 0x00, 0x00, 
  0x00, 0x00, 0x00, 0x00, 0x00, 0x20, 0x00, 0x00, 0x00, 0x0C, 0x03, 0x00, 
  0x20, 0x00, 0x00, 0x00, 0x0C, 0x03, 0x00, 0x00, 0x00, 0x00, 0x00, 0x0A, 
  0x85, 0x83, 0xA3, 0x03, 0x00, 0x00, 0x94, 0x46, 0x44, 0x40, 0x04, 0x00, 
  0x00, 0x92, 0x24, 0x48, 0x60, 0x04, 0x00, 0x00, 0x42, 0xE4, 0xCF, 0x00, 
  0x08, 0x00, 0x00, 0x64, 0x22, 0x00, 0x26, 0x04, 0x00, 0x00, 0x62, 0x24, 
  0x00, 0x6C, 0x08, 0x00, 0x00, 0x04, 0x44, 0x00, 0x24, 0x00, 0x00, 0x00, 
  0x00, 0x82, 0x87, 0x23, 0x08, 0x00, 0x00, 0x00, 0x00, 0x00, 0x00, 0x00, 
  0x00, 0x00, 0x00, 0x00, 0x00, 0x00, 0x00, 0x00, 0x00, 0x00, 0x00, 0x00, 
  0x00, 0x00, 0x00, 0x00, 0x00, 0x00, 0xE0, 0x00, 0x00, 0x00, 0x00, 0x00, 
  0x00, 0x18, 0x02, 0x00, 0x00, 0x00, 0x00, 0x00, 0x08, 0xC0, 0x01, 0x73, 
  0x00, 0x00, 0x00, 0x04, 0x20, 0xE2, 0x8C, 0x00, 0x00, 0x00, 0x04, 0x30, 
  0x22, 0x84, 0x00, 0x00, 0x00, 0x04, 0x10, 0x46, 0x84, 0x00, 0x00, 0x00, 
  0x04, 0x10, 0x24, 0x0C, 0x00, 0x00, 0x00, 0x0C, 0x10, 0x42, 0x80, 0x00, 
  0x00, 0x00, 0x18, 0x22, 0x22, 0x04, 0x01, 0x00, 0x00, 0xE0, 0xC0, 0x01, 
  0x84, 0x00, 0x00, 0x00, 0x00, 0x00, 0x00, 0x00, 0x00, 0x00, 0x00, 0x00, 
  0x00, 0x00, 0x00, 0x00, };
